<?xml version="1.0" encoding="iso-8859-1"?><!DOCTYPE svg PUBLIC "-//W3C//DTD SVG 1.1//EN" "http://www.w3.org/Graphics/SVG/1.1/DTD/svg11.dtd"><svg xmlns="http://www.w3.org/2000/svg" xmlns:xlink="http://www.w3.org/1999/xlink"><symbol viewBox="0 0 406.834 406.834" id="check"><path d="M385.621 62.507L146.225 301.901 21.213 176.891 0 198.104l146.225 146.223L406.834 83.72z"/></symbol><symbol viewBox="0 0 32.526 32.526" id="close"><path d="M32.526 2.828L29.698 0 16.263 13.435 2.828 0 0 2.828l13.435 13.435L0 29.698l2.828 2.828 13.435-13.435 13.435 13.435 2.828-2.828-13.435-13.435z"/></symbol><symbol viewBox="0 0 39.47 39.47" id="friends"><path d="M30.177 35.649H8.862a3.966 3.966 0 0 1-3.963-3.963v-1.312a7.977 7.977 0 0 1 7.591-7.975l.48-.023.292.382c1.607 2.108 3.885 3.318 6.249 3.318 2.363 0 4.642-1.21 6.251-3.318l.29-.381.479.022a7.971 7.971 0 0 1 7.607 7.975v1.312a3.964 3.964 0 0 1-3.961 3.963zM12.126 24.265a6.15 6.15 0 0 0-5.398 6.109v1.312c0 1.177.958 2.135 2.135 2.135h21.314a2.138 2.138 0 0 0 2.135-2.135v-1.312a6.146 6.146 0 0 0-5.412-6.11c-1.938 2.32-4.604 3.641-7.388 3.641s-5.45-1.32-7.386-3.64z"/><path d="M19.512 25.365c-4.285 0-7.771-4.256-7.771-9.486 0-5.231 3.485-9.487 7.771-9.487s7.771 4.256 7.771 9.487c-.001 5.23-3.486 9.486-7.771 9.486zm0-17.146c-3.276 0-5.942 3.436-5.942 7.659s2.666 7.658 5.942 7.658 5.942-3.436 5.942-7.658c0-4.223-2.666-7.659-5.942-7.659zM38.556 27.055a.914.914 0 0 1-.914-.914V24.99a5.285 5.285 0 0 0-4.595-5.247c-.33.391-.685.752-1.06 1.078a.914.914 0 1 1-1.199-1.381 8.246 8.246 0 0 0 1.126-1.205l.291-.381.479.022a7.111 7.111 0 0 1 6.786 7.113v1.151a.914.914 0 0 1-.914.915zM31.082 18.078a.915.915 0 0 1-.753-1.431c.833-1.212 1.292-2.77 1.292-4.385 0-3.646-2.291-6.612-5.106-6.612a.914.914 0 1 1 0-1.828c3.824 0 6.935 3.786 6.935 8.44 0 1.981-.572 3.906-1.612 5.42a.92.92 0 0 1-.756.396zM.914 27.055A.914.914 0 0 1 0 26.141V24.99a7.11 7.11 0 0 1 6.786-7.113l.479-.022.291.381c.342.447.721.853 1.126 1.205a.915.915 0 0 1-1.199 1.381 10.006 10.006 0 0 1-1.06-1.078 5.286 5.286 0 0 0-4.595 5.247v1.151a.914.914 0 0 1-.914.913zM8.388 18.078a.917.917 0 0 1-.755-.396c-1.04-1.514-1.612-3.438-1.612-5.42 0-4.654 3.11-8.44 6.935-8.44a.914.914 0 1 1 0 1.828c-2.815 0-5.106 2.967-5.106 6.612 0 1.615.459 3.173 1.292 4.385a.915.915 0 0 1-.754 1.431z"/></symbol><symbol viewBox="0 0 56 56" id="key"><path d="M40 0c-8.822 0-16 7.178-16 16 0 3.285.998 6.34 2.702 8.884L.293 51.293a.999.999 0 1 0 1.414 1.414L6 48.414l7.293 7.293a.997.997 0 0 0 1.414 0 .999.999 0 0 0 0-1.414L7.414 47 11 43.414l5.293 5.293a.997.997 0 0 0 1.414 0 .999.999 0 0 0 0-1.414L12.414 42 16 38.414l7.293 7.293a.997.997 0 0 0 1.414 0 .999.999 0 0 0 0-1.414L17.414 37l10.522-10.522C30.872 29.853 35.186 32 40 32c8.822 0 16-7.178 16-16S48.822 0 40 0zm0 30c-7.72 0-14-6.28-14-14S32.28 2 40 2s14 6.28 14 14-6.28 14-14 14z"/></symbol><symbol viewBox="0 0 31.494 31.494" id="left-arrow"><path d="M10.273 5.009a1.112 1.112 0 0 1 1.587 0 1.12 1.12 0 0 1 0 1.571l-8.047 8.047h26.554c.619 0 1.127.492 1.127 1.111s-.508 1.127-1.127 1.127H3.813l8.047 8.032c.429.444.429 1.159 0 1.587a1.112 1.112 0 0 1-1.587 0L.321 16.532a1.12 1.12 0 0 1 0-1.571l9.952-9.952z"/></symbol><symbol viewBox="0 0 64 64" id="logout"><path d="M52.45 28.768l-5-5a.968.968 0 0 0-1.367 1.368l3.317 3.316H35.267v2h14.132l-3.316 3.317a.966.966 0 1 0 1.367 1.367l5-5.001a.967.967 0 0 0 0-1.367z"/><path d="M40.267 39.452a1 1 0 0 0-1 1v10.79c0 1.043-.831 2.21-1.944 2.21h-6.056V9.868l-1.248-.534-15.942-6.77-.261-.112h23.507c1.217 0 1.944.993 1.944 1.952v15.048a1 1 0 1 0 2 0V4.404A3.951 3.951 0 0 0 37.323.452H12.267a.99.99 0 0 0-.983.913l-.017-.008v53.677l17.185 7.306 2.815 1.208v-8.096h6.056c2.359 0 3.944-2.176 3.944-4.21v-10.79a1 1 0 0 0-1-1zm-11-28.213v49.213l-16-6.776V4.452l15.99 6.773.01.004v.01z"/></symbol><symbol viewBox="0 0 31.012 31.012" id="mail"><path d="M25.109 21.51a.495.495 0 0 1-.342-.136l-5.754-5.398a.5.5 0 1 1 .685-.728l5.754 5.398a.5.5 0 0 1-.343.864zM5.902 21.51a.5.5 0 0 1-.343-.864l5.756-5.398a.5.5 0 0 1 .685.728l-5.756 5.398a.495.495 0 0 1-.342.136z"/><path d="M28.512 26.529H2.5a2.503 2.503 0 0 1-2.5-2.5V6.982c0-1.379 1.122-2.5 2.5-2.5h26.012c1.378 0 2.5 1.121 2.5 2.5v17.047c0 1.379-1.122 2.5-2.5 2.5zM2.5 5.482c-.827 0-1.5.673-1.5 1.5v17.047c0 .827.673 1.5 1.5 1.5h26.012c.827 0 1.5-.673 1.5-1.5V6.982c0-.827-.673-1.5-1.5-1.5H2.5z"/><path d="M15.506 18.018c-.665 0-1.33-.221-1.836-.662L.83 6.155a.501.501 0 0 1-.049-.706.503.503 0 0 1 .706-.048l12.84 11.2c.639.557 1.719.557 2.357 0L29.508 5.419a.5.5 0 0 1 .658.754L17.342 17.355c-.507.442-1.171.663-1.836.663z"/></symbol><symbol viewBox="0 0 54 54" id="map-menu"><path d="M53.516 1.143a.999.999 0 0 0-.983-.027L36 9.869 19.468 1.116c-.013-.007-.028-.009-.041-.015a1.004 1.004 0 0 0-.147-.055c-.028-.008-.055-.017-.083-.023a1.04 1.04 0 0 0-.168-.017c-.025-.001-.05-.004-.076-.003a.968.968 0 0 0-.16.025c-.03.006-.06.01-.089.019l-.02.004-18 6A1 1 0 0 0 0 8v43a1 1 0 0 0 1.316.948l17.646-5.882 16.657 6.859c.014.006.03.004.044.009.11.039.222.066.337.066a1 1 0 0 0 .266-.039c.028-.008.054-.021.082-.031.04-.015.082-.026.12-.046l17-9c.327-.173.532-.514.532-.884V2c0-.351-.184-.676-.484-.857zM2 8.721l16-5.333V30.38c-.43.078-.854.166-1.264.274a1 1 0 1 0 .513 1.934c.24-.064.502-.096.751-.148v11.84L2 49.612V8.721zM20 32.16c.321-.025.632-.066.961-.073a1.001 1.001 0 0 0-.021-2h-.022c-.31.007-.615.024-.918.045V3.661l15 7.941v21.194a14.952 14.952 0 0 1-2.201-.262 1 1 0 0 0-.38 1.963 16.99 16.99 0 0 0 2.582.289v15.721L20 44.33V32.16zm32 10.237l-15 7.941v-15.66a.993.993 0 0 0 .587-.98.994.994 0 0 0-.587-.821V11.602l15-7.941v38.736z"/><path d="M11 9c-2.757 0-5 2.243-5 5a5.009 5.009 0 0 0 4 4.899V21a1 1 0 1 0 2 0v-2.101A5.009 5.009 0 0 0 16 14c0-2.757-2.243-5-5-5zm0 8c-1.654 0-3-1.346-3-3s1.346-3 3-3 3 1.346 3 3-1.346 3-3 3zM45.07 27.673a1 1 0 0 0 1.296-.568c.47-1.199.847-2.553 1.123-4.024a1 1 0 0 0-.799-1.167 1.008 1.008 0 0 0-1.167.8c-.252 1.348-.595 2.58-1.019 3.663a1.001 1.001 0 0 0 .566 1.296zM12.805 32.342a13.87 13.87 0 0 0-3.235 2.82 1 1 0 0 0 1.529 1.289 11.833 11.833 0 0 1 2.768-2.414 1.001 1.001 0 0 0-1.062-1.695zM8.627 38.276a1 1 0 0 0-1.327.489c-1.026 2.226-1.28 4.023-1.291 4.099a.998.998 0 0 0 .992 1.135c.491 0 .919-.362.99-.861.002-.016.231-1.597 1.125-3.534a1.002 1.002 0 0 0-.489-1.328zM40.423 33.729a.998.998 0 0 0 .454-.109 10.419 10.419 0 0 0 3.384-2.786 1 1 0 1 0-1.56-1.252 8.414 8.414 0 0 1-2.735 2.257 1 1 0 0 0 .457 1.89zM29.17 31.432a12.399 12.399 0 0 1-.716-.322.996.996 0 0 0-.205-.078 32.59 32.59 0 0 0-3.173-.654.999.999 0 1 0-.302 1.977c.926.142 1.893.34 2.877.59.134.064.39.185.748.334a.999.999 0 0 0 1.308-.537 1 1 0 0 0-.537-1.31zM46.923 19.931l.065.002a1 1 0 0 0 .997-.937c.062-.961.093-1.978.093-3.02 0-.347-.003-.699-.01-1.058-.01-.553-.49-.973-1.018-.982a1 1 0 0 0-.982 1.018c.006.347.01.688.01 1.022 0 1-.03 1.973-.089 2.893a1 1 0 0 0 .934 1.062zM8.293 28.707a.997.997 0 0 0 1.414 0L11 27.414l1.293 1.293a.997.997 0 0 0 1.414 0 .999.999 0 0 0 0-1.414L12.414 26l1.293-1.293a.999.999 0 1 0-1.414-1.414L11 24.586l-1.293-1.293a.999.999 0 1 0-1.414 1.414L9.586 26l-1.293 1.293a.999.999 0 0 0 0 1.414z"/></symbol><symbol viewBox="0 0 80 80" id="marker"><path d="M40 0C26.191 0 15 11.194 15 25c0 23.87 25 55 25 55s25-31.13 25-55C65 11.194 53.807 0 40 0zm0 38.8c-7.457 0-13.5-6.044-13.5-13.5S32.543 11.8 40 11.8c7.455 0 13.5 6.044 13.5 13.5S47.455 38.8 40 38.8z"/></symbol><symbol viewBox="0 0 459 459" id="menu"><path d="M0 382.5h459v-51H0v51zM0 255h459v-51H0v51zM0 76.5v51h459v-51H0z"/></symbol><symbol viewBox="0 0 33 33" id="messages"><path d="M7.282 32.706a.5.5 0 0 1-.5-.5v-7.124C2.405 22.806 0 18.821 0 13.828 0 6.112 7.093.294 16.5.294S33 6.112 33 13.828c0 7.715-7.093 13.533-16.5 13.533-.309 0-.612-.017-.916-.033l-.02-.001-8.007 5.296a.498.498 0 0 1-.275.083zM16.5 1.294C7.664 1.294 1 6.683 1 13.828c0 3.323 1.128 7.842 6.503 10.499a.5.5 0 0 1 .278.448v6.501l7.369-4.874a.456.456 0 0 1 .302-.082l.186.01c.286.016.571.031.861.031 8.836 0 15.5-5.388 15.5-12.533S25.336 1.294 16.5 1.294z"/><path d="M23.987 9.631H9.013a.5.5 0 0 1 0-1h14.974a.5.5 0 0 1 0 1zM23.987 14.497H9.013a.5.5 0 0 1 0-1h14.974a.5.5 0 0 1 0 1zM16.5 19.361H9.013a.5.5 0 0 1 0-1H16.5a.5.5 0 0 1 0 1z"/></symbol><symbol viewBox="0 0 60 60" id="photo"><path d="M55.201 15.5h-8.524l-4-10H17.323l-4 10H12v-5H6v5H4.799A4.803 4.803 0 0 0 0 20.299v29.368A4.838 4.838 0 0 0 4.833 54.5h50.334A4.838 4.838 0 0 0 60 49.667V20.299a4.803 4.803 0 0 0-4.799-4.799zM8 12.5h2v3H8v-3zm50 37.167a2.836 2.836 0 0 1-2.833 2.833H4.833A2.836 2.836 0 0 1 2 49.667V20.299A2.803 2.803 0 0 1 4.799 17.5h9.878l4-10h22.646l4 10h9.878A2.803 2.803 0 0 1 58 20.299v29.368z"/><path d="M30 14.5c-9.925 0-18 8.075-18 18s8.075 18 18 18 18-8.075 18-18-8.075-18-18-18zm0 34c-8.822 0-16-7.178-16-16s7.178-16 16-16 16 7.178 16 16-7.178 16-16 16z"/><path d="M30 20.5c-6.617 0-12 5.383-12 12s5.383 12 12 12 12-5.383 12-12-5.383-12-12-12zm0 22c-5.514 0-10-4.486-10-10s4.486-10 10-10 10 4.486 10 10-4.486 10-10 10zM52 19.5c-2.206 0-4 1.794-4 4s1.794 4 4 4 4-1.794 4-4-1.794-4-4-4zm0 6c-1.103 0-2-.897-2-2s.897-2 2-2 2 .897 2 2-.897 2-2 2z"/></symbol><symbol viewBox="0 0 485.213 485.213" id="search"><path d="M363.909 181.955C363.909 81.473 282.44 0 181.956 0 81.474 0 .001 81.473.001 181.955s81.473 181.951 181.955 181.951c100.484 0 181.953-81.469 181.953-181.951zM181.956 318.416c-75.252 0-136.465-61.208-136.465-136.46 0-75.252 61.213-136.465 136.465-136.465 75.25 0 136.468 61.213 136.468 136.465 0 75.252-61.218 136.46-136.468 136.46zM471.882 407.567L360.567 296.243a214.267 214.267 0 0 1-64.331 64.321L407.56 471.888c17.772 17.768 46.587 17.768 64.321 0 17.773-17.739 17.773-46.554.001-64.321z"/></symbol><symbol viewBox="0 0 478.703 478.703" id="settings"><path d="M454.2 189.101l-33.6-5.7c-3.5-11.3-8-22.2-13.5-32.6l19.8-27.7c8.4-11.8 7.1-27.9-3.2-38.1l-29.8-29.8c-5.6-5.6-13-8.7-20.9-8.7-6.2 0-12.1 1.9-17.1 5.5l-27.8 19.8c-10.8-5.7-22.1-10.4-33.8-13.9l-5.6-33.2a29.54 29.54 0 0 0-29.2-24.7h-42.1c-14.5 0-26.8 10.4-29.2 24.7l-5.8 34c-11.2 3.5-22.1 8.1-32.5 13.7l-27.5-19.8c-5-3.6-11-5.5-17.2-5.5-7.9 0-15.4 3.1-20.9 8.7l-29.9 29.8c-10.2 10.2-11.6 26.3-3.2 38.1l20 28.1c-5.5 10.5-9.9 21.4-13.3 32.7l-33.2 5.6a29.54 29.54 0 0 0-24.7 29.2v42.1c0 14.5 10.4 26.8 24.7 29.2l34 5.8c3.5 11.2 8.1 22.1 13.7 32.5l-19.7 27.4c-8.4 11.8-7.1 27.9 3.2 38.1l29.8 29.8c5.6 5.6 13 8.7 20.9 8.7 6.2 0 12.1-1.9 17.1-5.5l28.1-20c10.1 5.3 20.7 9.6 31.6 13l5.6 33.6a29.54 29.54 0 0 0 29.2 24.7h42.2c14.5 0 26.8-10.4 29.2-24.7l5.7-33.6c11.3-3.5 22.2-8 32.6-13.5l27.7 19.8c5 3.6 11 5.5 17.2 5.5 7.9 0 15.3-3.1 20.9-8.7l29.8-29.8c10.2-10.2 11.6-26.3 3.2-38.1l-19.8-27.8c5.5-10.5 10.1-21.4 13.5-32.6l33.6-5.6a29.54 29.54 0 0 0 24.7-29.2v-42.1c.2-14.5-10.2-26.8-24.5-29.2zm-2.3 71.3c0 1.3-.9 2.4-2.2 2.6l-42 7c-5.3.9-9.5 4.8-10.8 9.9-3.8 14.7-9.6 28.8-17.4 41.9-2.7 4.6-2.5 10.3.6 14.7l24.7 34.8c.7 1 .6 2.5-.3 3.4l-29.8 29.8c-.7.7-1.4.8-1.9.8-.6 0-1.1-.2-1.5-.5l-34.7-24.7c-4.3-3.1-10.1-3.3-14.7-.6-13.1 7.8-27.2 13.6-41.9 17.4-5.2 1.3-9.1 5.6-9.9 10.8l-7.1 42c-.2 1.3-1.3 2.2-2.6 2.2h-42.1c-1.3 0-2.4-.9-2.6-2.2l-7-42c-.9-5.3-4.8-9.5-9.9-10.8-14.3-3.7-28.1-9.4-41-16.8-2.1-1.2-4.5-1.8-6.8-1.8-2.7 0-5.5.8-7.8 2.5l-35 24.9c-.5.3-1 .5-1.5.5-.4 0-1.2-.1-1.9-.8l-29.8-29.8c-.9-.9-1-2.3-.3-3.4l24.6-34.5c3.1-4.4 3.3-10.2.6-14.8-7.8-13-13.8-27.1-17.6-41.8-1.4-5.1-5.6-9-10.8-9.9l-42.3-7.2c-1.3-.2-2.2-1.3-2.2-2.6v-42.1c0-1.3.9-2.4 2.2-2.6l41.7-7c5.3-.9 9.6-4.8 10.9-10 3.7-14.7 9.4-28.9 17.1-42 2.7-4.6 2.4-10.3-.7-14.6l-24.9-35c-.7-1-.6-2.5.3-3.4l29.8-29.8c.7-.7 1.4-.8 1.9-.8.6 0 1.1.2 1.5.5l34.5 24.6c4.4 3.1 10.2 3.3 14.8.6 13-7.8 27.1-13.8 41.8-17.6 5.1-1.4 9-5.6 9.9-10.8l7.2-42.3c.2-1.3 1.3-2.2 2.6-2.2h42.1c1.3 0 2.4.9 2.6 2.2l7 41.7c.9 5.3 4.8 9.6 10 10.9 15.1 3.8 29.5 9.7 42.9 17.6 4.6 2.7 10.3 2.5 14.7-.6l34.5-24.8c.5-.3 1-.5 1.5-.5.4 0 1.2.1 1.9.8l29.8 29.8c.9.9 1 2.3.3 3.4l-24.7 34.7c-3.1 4.3-3.3 10.1-.6 14.7 7.8 13.1 13.6 27.2 17.4 41.9 1.3 5.2 5.6 9.1 10.8 9.9l42 7.1c1.3.2 2.2 1.3 2.2 2.6v42.1h-.1z"/><path d="M239.4 136.001c-57 0-103.3 46.3-103.3 103.3s46.3 103.3 103.3 103.3 103.3-46.3 103.3-103.3-46.3-103.3-103.3-103.3zm0 179.6c-42.1 0-76.3-34.2-76.3-76.3s34.2-76.3 76.3-76.3 76.3 34.2 76.3 76.3-34.2 76.3-76.3 76.3z"/></symbol><symbol viewBox="0 0 60 60" id="user-reg"><path d="M48.014 42.889l-9.553-4.776A2.63 2.63 0 0 1 37 35.748v-3.381c.229-.28.47-.599.719-.951a22.886 22.886 0 0 0 2.954-5.799A3.968 3.968 0 0 0 43 22v-4c0-.963-.36-1.896-1-2.625v-5.319c.056-.55.276-3.824-2.092-6.525C37.854 1.188 34.521 0 30 0s-7.854 1.188-9.908 3.53C17.724 6.231 17.944 9.506 18 10.056v5.319c-.64.729-1 1.662-1 2.625v4c0 1.217.553 2.352 1.497 3.109.916 3.627 2.833 6.36 3.503 7.237v3.309c0 .968-.528 1.856-1.377 2.32l-8.921 4.866A9.018 9.018 0 0 0 7 50.762V54c0 4.746 15.045 6 23 6s23-1.254 23-6v-3.043a8.973 8.973 0 0 0-4.986-8.068zM51 54c0 1.357-7.412 4-21 4S9 55.357 9 54v-3.238a7.016 7.016 0 0 1 3.659-6.164l8.921-4.866A4.644 4.644 0 0 0 24 35.655v-4.019l-.233-.278c-.024-.029-2.475-2.994-3.41-7.065l-.091-.396-.341-.22A1.995 1.995 0 0 1 19 22v-4c0-.561.238-1.084.67-1.475l.33-.297V10l-.009-.131c-.003-.027-.343-2.799 1.605-5.021C23.253 2.958 26.081 2 30 2c3.905 0 6.727.951 8.386 2.828 1.947 2.201 1.625 5.017 1.623 5.041L40 16.228l.33.298c.432.39.67.913.67 1.474v4c0 .873-.572 1.637-1.422 1.899l-.498.153-.16.495a20.934 20.934 0 0 1-2.834 5.713c-.297.421-.586.794-.837 1.079l-.249.284v4.125c0 1.77.983 3.361 2.566 4.153l9.553 4.776A6.982 6.982 0 0 1 51 50.957V54z"/></symbol></svg>