<?xml version="1.0" encoding="iso-8859-1"?><!DOCTYPE svg PUBLIC "-//W3C//DTD SVG 1.1//EN" "http://www.w3.org/Graphics/SVG/1.1/DTD/svg11.dtd"><svg xmlns="http://www.w3.org/2000/svg" xmlns:xlink="http://www.w3.org/1999/xlink"><symbol viewBox="0 0 406.834 406.834" id="check"><path d="M385.621 62.507L146.225 301.901 21.213 176.891 0 198.104l146.225 146.223L406.834 83.72z"/></symbol><symbol viewBox="0 0 56 56" id="key"><path d="M40 0c-8.822 0-16 7.178-16 16 0 3.285.998 6.34 2.702 8.884L.293 51.293a.999.999 0 1 0 1.414 1.414L6 48.414l7.293 7.293a.997.997 0 0 0 1.414 0 .999.999 0 0 0 0-1.414L7.414 47 11 43.414l5.293 5.293a.997.997 0 0 0 1.414 0 .999.999 0 0 0 0-1.414L12.414 42 16 38.414l7.293 7.293a.997.997 0 0 0 1.414 0 .999.999 0 0 0 0-1.414L17.414 37l10.522-10.522C30.872 29.853 35.186 32 40 32c8.822 0 16-7.178 16-16S48.822 0 40 0zm0 30c-7.72 0-14-6.28-14-14S32.28 2 40 2s14 6.28 14 14-6.28 14-14 14z"/></symbol><symbol viewBox="0 0 31.494 31.494" id="left-arrow"><path d="M10.273 5.009a1.112 1.112 0 0 1 1.587 0 1.12 1.12 0 0 1 0 1.571l-8.047 8.047h26.554c.619 0 1.127.492 1.127 1.111s-.508 1.127-1.127 1.127H3.813l8.047 8.032c.429.444.429 1.159 0 1.587a1.112 1.112 0 0 1-1.587 0L.321 16.532a1.12 1.12 0 0 1 0-1.571l9.952-9.952z"/></symbol><symbol viewBox="0 0 31.012 31.012" id="mail"><path d="M25.109 21.51a.495.495 0 0 1-.342-.136l-5.754-5.398a.5.5 0 1 1 .685-.728l5.754 5.398a.5.5 0 0 1-.343.864zM5.902 21.51a.5.5 0 0 1-.343-.864l5.756-5.398a.5.5 0 0 1 .685.728l-5.756 5.398a.495.495 0 0 1-.342.136z"/><path d="M28.512 26.529H2.5a2.503 2.503 0 0 1-2.5-2.5V6.982c0-1.379 1.122-2.5 2.5-2.5h26.012c1.378 0 2.5 1.121 2.5 2.5v17.047c0 1.379-1.122 2.5-2.5 2.5zM2.5 5.482c-.827 0-1.5.673-1.5 1.5v17.047c0 .827.673 1.5 1.5 1.5h26.012c.827 0 1.5-.673 1.5-1.5V6.982c0-.827-.673-1.5-1.5-1.5H2.5z"/><path d="M15.506 18.018c-.665 0-1.33-.221-1.836-.662L.83 6.155a.501.501 0 0 1-.049-.706.503.503 0 0 1 .706-.048l12.84 11.2c.639.557 1.719.557 2.357 0L29.508 5.419a.5.5 0 0 1 .658.754L17.342 17.355c-.507.442-1.171.663-1.836.663z"/></symbol><symbol viewBox="0 0 60 60" id="photo"><path d="M55.201 15.5h-8.524l-4-10H17.323l-4 10H12v-5H6v5H4.799A4.803 4.803 0 0 0 0 20.299v29.368A4.838 4.838 0 0 0 4.833 54.5h50.334A4.838 4.838 0 0 0 60 49.667V20.299a4.803 4.803 0 0 0-4.799-4.799zM8 12.5h2v3H8v-3zm50 37.167a2.836 2.836 0 0 1-2.833 2.833H4.833A2.836 2.836 0 0 1 2 49.667V20.299A2.803 2.803 0 0 1 4.799 17.5h9.878l4-10h22.646l4 10h9.878A2.803 2.803 0 0 1 58 20.299v29.368z"/><path d="M30 14.5c-9.925 0-18 8.075-18 18s8.075 18 18 18 18-8.075 18-18-8.075-18-18-18zm0 34c-8.822 0-16-7.178-16-16s7.178-16 16-16 16 7.178 16 16-7.178 16-16 16z"/><path d="M30 20.5c-6.617 0-12 5.383-12 12s5.383 12 12 12 12-5.383 12-12-5.383-12-12-12zm0 22c-5.514 0-10-4.486-10-10s4.486-10 10-10 10 4.486 10 10-4.486 10-10 10zM52 19.5c-2.206 0-4 1.794-4 4s1.794 4 4 4 4-1.794 4-4-1.794-4-4-4zm0 6c-1.103 0-2-.897-2-2s.897-2 2-2 2 .897 2 2-.897 2-2 2z"/></symbol><symbol viewBox="0 0 485.213 485.213" id="search"><path d="M363.909 181.955C363.909 81.473 282.44 0 181.956 0 81.474 0 .001 81.473.001 181.955s81.473 181.951 181.955 181.951c100.484 0 181.953-81.469 181.953-181.951zM181.956 318.416c-75.252 0-136.465-61.208-136.465-136.46 0-75.252 61.213-136.465 136.465-136.465 75.25 0 136.468 61.213 136.468 136.465 0 75.252-61.218 136.46-136.468 136.46zM471.882 407.567L360.567 296.243a214.267 214.267 0 0 1-64.331 64.321L407.56 471.888c17.772 17.768 46.587 17.768 64.321 0 17.773-17.739 17.773-46.554.001-64.321z"/></symbol><symbol viewBox="0 0 60 60" id="user-reg"><path d="M48.014 42.889l-9.553-4.776A2.63 2.63 0 0 1 37 35.748v-3.381c.229-.28.47-.599.719-.951a22.886 22.886 0 0 0 2.954-5.799A3.968 3.968 0 0 0 43 22v-4c0-.963-.36-1.896-1-2.625v-5.319c.056-.55.276-3.824-2.092-6.525C37.854 1.188 34.521 0 30 0s-7.854 1.188-9.908 3.53C17.724 6.231 17.944 9.506 18 10.056v5.319c-.64.729-1 1.662-1 2.625v4c0 1.217.553 2.352 1.497 3.109.916 3.627 2.833 6.36 3.503 7.237v3.309c0 .968-.528 1.856-1.377 2.32l-8.921 4.866A9.018 9.018 0 0 0 7 50.762V54c0 4.746 15.045 6 23 6s23-1.254 23-6v-3.043a8.973 8.973 0 0 0-4.986-8.068zM51 54c0 1.357-7.412 4-21 4S9 55.357 9 54v-3.238a7.016 7.016 0 0 1 3.659-6.164l8.921-4.866A4.644 4.644 0 0 0 24 35.655v-4.019l-.233-.278c-.024-.029-2.475-2.994-3.41-7.065l-.091-.396-.341-.22A1.995 1.995 0 0 1 19 22v-4c0-.561.238-1.084.67-1.475l.33-.297V10l-.009-.131c-.003-.027-.343-2.799 1.605-5.021C23.253 2.958 26.081 2 30 2c3.905 0 6.727.951 8.386 2.828 1.947 2.201 1.625 5.017 1.623 5.041L40 16.228l.33.298c.432.39.67.913.67 1.474v4c0 .873-.572 1.637-1.422 1.899l-.498.153-.16.495a20.934 20.934 0 0 1-2.834 5.713c-.297.421-.586.794-.837 1.079l-.249.284v4.125c0 1.77.983 3.361 2.566 4.153l9.553 4.776A6.982 6.982 0 0 1 51 50.957V54z"/></symbol></svg>