<?xml version="1.0" encoding="iso-8859-1"?><svg xmlns="http://www.w3.org/2000/svg" viewBox="0 0 39.47 39.47" width="39.47" height="39.47"><path d="M30.177 35.649H8.862a3.966 3.966 0 0 1-3.963-3.963v-1.312a7.977 7.977 0 0 1 7.591-7.975l.48-.023.292.382c1.607 2.108 3.885 3.318 6.249 3.318 2.363 0 4.642-1.21 6.251-3.318l.29-.381.479.022a7.971 7.971 0 0 1 7.607 7.975v1.312a3.964 3.964 0 0 1-3.961 3.963zM12.126 24.265a6.15 6.15 0 0 0-5.398 6.109v1.312c0 1.177.958 2.135 2.135 2.135h21.314a2.138 2.138 0 0 0 2.135-2.135v-1.312a6.146 6.146 0 0 0-5.412-6.11c-1.938 2.32-4.604 3.641-7.388 3.641s-5.45-1.32-7.386-3.64z"/><path d="M19.512 25.365c-4.285 0-7.771-4.256-7.771-9.486 0-5.231 3.485-9.487 7.771-9.487s7.771 4.256 7.771 9.487c-.001 5.23-3.486 9.486-7.771 9.486zm0-17.146c-3.276 0-5.942 3.436-5.942 7.659s2.666 7.658 5.942 7.658 5.942-3.436 5.942-7.658c0-4.223-2.666-7.659-5.942-7.659zM38.556 27.055a.914.914 0 0 1-.914-.914V24.99a5.285 5.285 0 0 0-4.595-5.247c-.33.391-.685.752-1.06 1.078a.914.914 0 1 1-1.199-1.381 8.246 8.246 0 0 0 1.126-1.205l.291-.381.479.022a7.111 7.111 0 0 1 6.786 7.113v1.151a.914.914 0 0 1-.914.915zM31.082 18.078a.915.915 0 0 1-.753-1.431c.833-1.212 1.292-2.77 1.292-4.385 0-3.646-2.291-6.612-5.106-6.612a.914.914 0 1 1 0-1.828c3.824 0 6.935 3.786 6.935 8.44 0 1.981-.572 3.906-1.612 5.42a.92.92 0 0 1-.756.396zM.914 27.055A.914.914 0 0 1 0 26.141V24.99a7.11 7.11 0 0 1 6.786-7.113l.479-.022.291.381c.342.447.721.853 1.126 1.205a.915.915 0 0 1-1.199 1.381 10.006 10.006 0 0 1-1.06-1.078 5.286 5.286 0 0 0-4.595 5.247v1.151a.914.914 0 0 1-.914.913zM8.388 18.078a.917.917 0 0 1-.755-.396c-1.04-1.514-1.612-3.438-1.612-5.42 0-4.654 3.11-8.44 6.935-8.44a.914.914 0 1 1 0 1.828c-2.815 0-5.106 2.967-5.106 6.612 0 1.615.459 3.173 1.292 4.385a.915.915 0 0 1-.754 1.431z"/></svg>