<?xml version="1.0" encoding="iso-8859-1"?><svg xmlns="http://www.w3.org/2000/svg" viewBox="0 0 25.96 25.96" width="25.96" height="25.96"><path d="M11.896 17.15c-.131-.043-.953-.887-.439-2.474h-.007c1.34-1.401 2.487-3.655 2.487-5.876 0-3.412-2.359-5.201-4.957-5.201-2.6 0-4.855 1.789-4.855 5.201 0 2.229 1.051 4.492 2.398 5.892.525 1.398-.414 2.384-.611 2.458C3.192 18.148 0 19.97 0 21.767v.674c0 2.449 4.677 3.006 9.006 3.006 4.334 0 8.953-.557 8.953-3.006v-.674c0-1.852-3.208-3.658-6.063-4.617z" fill="#030104"/><path d="M20.259 12.651c-.122-.041-.896-.23-.413-1.723h-.006c1.26-1.316 2.129-3.438 2.129-5.523 0-3.209-2.01-4.891-4.452-4.891-1.798 0-3.347.918-4.042 2.678 1.459 1.205 2.463 3.081 2.463 5.607 0 2.697-1.264 5.158-2.586 6.746 2.106.797 5.397 2.4 6.339 4.85 3.318-.184 6.269-.873 6.269-2.771v-.633c-.001-1.74-3.017-3.439-5.701-4.34z" fill="#030104"/></svg>