<?xml version="1.0" encoding="utf-8"?><svg xmlns="http://www.w3.org/2000/svg" viewBox="0 0 64 64" width="64" height="64"><path d="M52.45 28.768l-5-5a.968.968 0 0 0-1.367 1.368l3.317 3.316H35.267v2h14.132l-3.316 3.317a.966.966 0 1 0 1.367 1.367l5-5.001a.967.967 0 0 0 0-1.367z"/><path d="M40.267 39.452a1 1 0 0 0-1 1v10.79c0 1.043-.831 2.21-1.944 2.21h-6.056V9.868l-1.248-.534-15.942-6.77-.261-.112h23.507c1.217 0 1.944.993 1.944 1.952v15.048a1 1 0 1 0 2 0V4.404A3.951 3.951 0 0 0 37.323.452H12.267a.99.99 0 0 0-.983.913l-.017-.008v53.677l17.185 7.306 2.815 1.208v-8.096h6.056c2.359 0 3.944-2.176 3.944-4.21v-10.79a1 1 0 0 0-1-1zm-11-28.213v49.213l-16-6.776V4.452l15.99 6.773.01.004v.01z"/></svg>